<?xml version="1.0" encoding="utf-8"?>
<!-- Generator: Adobe Illustrator 22.0.0, SVG Export Plug-In . SVG Version: 6.00 Build 0)  -->
<svg version="1.1"
	 id="svg4692" inkscape:version="0.47 r22583" sodipodi:docname="New document 8" xmlns:cc="http://creativecommons.org/ns#" xmlns:dc="http://purl.org/dc/elements/1.1/" xmlns:inkscape="http://www.inkscape.org/namespaces/inkscape" xmlns:ns1="http://sozi.baierouge.fr" xmlns:rdf="http://www.w3.org/1999/02/22-rdf-syntax-ns#" xmlns:sodipodi="http://sodipodi.sourceforge.net/DTD/sodipodi-0.dtd" xmlns:svg="http://www.w3.org/2000/svg"
	 xmlns="http://www.w3.org/2000/svg" xmlns:xlink="http://www.w3.org/1999/xlink" x="0px" y="0px" viewBox="0 0 1425.8 353.7"
	 style="enable-background:new 0 0 1425.8 353.7;" xml:space="preserve">
<style type="text/css">
	.st0{fill:url(#path4711_1_);}
	.st1{fill:#EEEEEE;}
	.st2{enable-background:new    ;}
	.st3{fill:url(#SVGID_1_);stroke:url(#SVGID_2_);stroke-width:9;stroke-miterlimit:10;}
	.st4{fill:url(#SVGID_3_);stroke:url(#SVGID_4_);stroke-width:9;stroke-miterlimit:10;}
	.st5{fill:url(#SVGID_5_);stroke:url(#SVGID_6_);stroke-width:9;stroke-miterlimit:10;}
	.st6{fill:url(#SVGID_7_);stroke:url(#SVGID_8_);stroke-width:9;stroke-miterlimit:10;}
	.st7{fill:url(#SVGID_9_);stroke:url(#SVGID_10_);stroke-width:9;stroke-miterlimit:10;}
	.st8{fill:url(#SVGID_11_);stroke:url(#SVGID_12_);stroke-width:9;stroke-miterlimit:10;}
	.st9{fill:url(#SVGID_13_);stroke:url(#SVGID_14_);stroke-width:9;stroke-miterlimit:10;}
	.st10{fill:url(#SVGID_15_);stroke:url(#SVGID_16_);stroke-width:9;stroke-miterlimit:10;}
	.st11{fill:url(#SVGID_17_);stroke:url(#SVGID_18_);stroke-width:9;stroke-miterlimit:10;}
</style>
<sodipodi:namedview  bordercolor="#666666" borderopacity="1.0" id="namedview4696" inkscape:current-layer="layer1" inkscape:cx="642.17049" inkscape:cy="175.65506" inkscape:document-units="mm" inkscape:pageopacity="0.0" inkscape:pageshadow="2" inkscape:window-height="851" inkscape:window-maximized="0" inkscape:window-width="1099" inkscape:window-x="605" inkscape:window-y="226" inkscape:zoom="0.30699632" pagecolor="#ffffff" showgrid="false">
	</sodipodi:namedview>
<g id="layer1" transform="translate(364.43 8.4823)" inkscape:groupmode="layer" inkscape:label="Layer 1">
	<g id="g5286">
		<g id="g5278" transform="matrix(.43789 -.43789 .43789 .43789 -547.02 450.07)">
			
				<linearGradient id="path4711_1_" gradientUnits="userSpaceOnUse" x1="-15606.1279" y1="6880.9053" x2="-15608.4277" y2="7438.3086" gradientTransform="matrix(0.147 0 0 0.147 3095.334 -990.8845)">
				<stop  offset="0" style="stop-color:#2294FE"/>
				<stop  offset="1" style="stop-color:#014F96"/>
			</linearGradient>
			
				<path id="path4711" sodipodi:cx="-469.87463" sodipodi:cy="202.81734" sodipodi:rx="285.61008" sodipodi:ry="285.61008" sodipodi:type="arc" class="st0" d="
				M1017.7,88.8c0,157.7-127.9,285.6-285.6,285.6S446.5,246.5,446.5,88.8s127.9-285.6,285.6-285.6S1017.7-68.9,1017.7,88.8z"/>
			
				<path id="path4713" sodipodi:cx="-469.87463" sodipodi:cy="202.81734" sodipodi:rx="285.61008" sodipodi:ry="285.61008" sodipodi:type="arc" class="st1" d="
				M906,202.5c0,96-77.9,173.9-173.9,173.9s-173.9-77.9-173.9-173.9S636.1,28.6,732.1,28.6S906,106.5,906,202.5z"/>
		</g>
	</g>
</g>
<g class="st2">
	<linearGradient id="SVGID_1_" gradientUnits="userSpaceOnUse" x1="368" y1="176.65" x2="520" y2="176.65">
		<stop  offset="0" style="stop-color:#2294FE"/>
		<stop  offset="1" style="stop-color:#014F96"/>
	</linearGradient>
	<linearGradient id="SVGID_2_" gradientUnits="userSpaceOnUse" x1="360.3385" y1="176.65" x2="525.507" y2="176.65">
		<stop  offset="0" style="stop-color:#2294FE"/>
		<stop  offset="1" style="stop-color:#014F96"/>
	</linearGradient>
	<path class="st3" d="M481.7,216.6h-58l-22.6,41.6H368L459,95h27.8L520,258.3h-30.5L481.7,216.6z M437.4,191.6h39.7l-3.3-17.6
		c-2.7-14.1-4.8-27.1-6.5-39.2h-0.7c-5.8,12.9-12,25.4-18.8,37.7L437.4,191.6z"/>
	<linearGradient id="SVGID_3_" gradientUnits="userSpaceOnUse" x1="544.4999" y1="170.85" x2="604.5" y2="170.85">
		<stop  offset="0" style="stop-color:#2294FE"/>
		<stop  offset="1" style="stop-color:#014F96"/>
	</linearGradient>
	<linearGradient id="SVGID_4_" gradientUnits="userSpaceOnUse" x1="539.9999" y1="170.85" x2="610.0338" y2="170.85">
		<stop  offset="0" style="stop-color:#2294FE"/>
		<stop  offset="1" style="stop-color:#014F96"/>
	</linearGradient>
	<path class="st4" d="M575.7,81.6h28.8l-29.2,140.2c-0.7,3.3-1,5.6-1,7.1c0,2.3,0.7,3.9,2.1,4.9c1.4,1,3.5,1.5,6.2,1.5
		c2.8,0,5.7-0.3,8.7-1l-5.2,24.2c-1.9,0.4-4.3,0.8-7.2,1.1c-2.9,0.3-5.7,0.5-8.4,0.5c-8.6,0-15.1-1.9-19.5-5.8
		c-4.4-3.9-6.5-9.5-6.5-17c0-3.9,0.5-8.3,1.6-13.3L575.7,81.6z"/>
	<linearGradient id="SVGID_5_" gradientUnits="userSpaceOnUse" x1="612.4999" y1="170.85" x2="672.5" y2="170.85">
		<stop  offset="0" style="stop-color:#2294FE"/>
		<stop  offset="1" style="stop-color:#014F96"/>
	</linearGradient>
	<linearGradient id="SVGID_6_" gradientUnits="userSpaceOnUse" x1="607.9999" y1="170.85" x2="678.0338" y2="170.85">
		<stop  offset="0" style="stop-color:#2294FE"/>
		<stop  offset="1" style="stop-color:#014F96"/>
	</linearGradient>
	<path class="st5" d="M643.7,81.6h28.8l-29.2,140.2c-0.7,3.3-1,5.6-1,7.1c0,2.3,0.7,3.9,2.1,4.9c1.4,1,3.5,1.5,6.2,1.5
		c2.8,0,5.7-0.3,8.7-1l-5.2,24.2c-1.9,0.4-4.3,0.8-7.2,1.1c-2.9,0.3-5.7,0.5-8.4,0.5c-8.6,0-15.1-1.9-19.5-5.8
		c-4.4-3.9-6.5-9.5-6.5-17c0-3.9,0.5-8.3,1.6-13.3L643.7,81.6z"/>
	<linearGradient id="SVGID_7_" gradientUnits="userSpaceOnUse" x1="674.3" y1="222.8" x2="792.9" y2="222.8">
		<stop  offset="0" style="stop-color:#2294FE"/>
		<stop  offset="1" style="stop-color:#014F96"/>
	</linearGradient>
	<linearGradient id="SVGID_8_" gradientUnits="userSpaceOnUse" x1="668.7637" y1="222.8" x2="798.4332" y2="222.8">
		<stop  offset="0" style="stop-color:#2294FE"/>
		<stop  offset="1" style="stop-color:#014F96"/>
	</linearGradient>
	<path class="st6" d="M736.6,258.3h-62.3l4.3-20.6l60.1-97.6h30.5l-57.6,94.2l0.1,0.2c0.9-0.1,2-0.2,3.4-0.2
		c1.3-0.1,2.8-0.2,4.3-0.2c1.5-0.1,3-0.1,4.5-0.2c1.5,0,2.9-0.1,4.1-0.1h13.7l6.3-30.3h29l-6.3,30.3h22.2l-5.1,24.5h-22.1l-9.8,47.2
		h-29.1L736.6,258.3z"/>
	<linearGradient id="SVGID_9_" gradientUnits="userSpaceOnUse" x1="804.2" y1="176.5" x2="937.1" y2="176.5">
		<stop  offset="0" style="stop-color:#2294FE"/>
		<stop  offset="1" style="stop-color:#014F96"/>
	</linearGradient>
	<linearGradient id="SVGID_10_" gradientUnits="userSpaceOnUse" x1="799.163" y1="176.5" x2="942.2686" y2="176.5">
		<stop  offset="0" style="stop-color:#2294FE"/>
		<stop  offset="1" style="stop-color:#014F96"/>
	</linearGradient>
	<path class="st7" d="M895.3,207.3c0-3.7-1-6.8-3-9.2s-4.6-4.3-7.8-5.9c-3.2-1.5-6.9-2.9-11.1-4.1c-4.2-1.2-8.5-2.4-12.9-3.7
		c-5.1-1.6-9.9-3.5-14.3-5.7c-4.4-2.2-8.3-4.9-11.5-8.1c-3.3-3.2-5.8-7.1-7.7-11.7c-1.9-4.6-2.8-9.8-2.8-15.9
		c0-7.6,1.4-14.6,4.2-20.9c2.8-6.3,6.8-11.7,12-16.2c5.2-4.5,11.4-7.9,18.7-10.4s15.5-3.7,24.5-3.7c9.6,0,19.1,1,28.6,3.1
		c9.4,2.1,17.7,4.7,24.9,7.7l-5.2,24.8c-9.2-3.7-17.4-6.3-24.6-7.9c-7.2-1.6-14.4-2.4-21.7-2.4c-9.7,0-17.3,2-22.7,6.1
		c-5.5,4.1-8.2,9.5-8.2,16.4c0,3.7,0.7,6.8,2.2,9.3c1.5,2.6,3.4,4.7,5.9,6.5c2.4,1.8,5.3,3.3,8.6,4.5c3.3,1.3,6.8,2.5,10.4,3.6
		c5.3,1.6,10.6,3.4,15.9,5.2c5.3,1.9,10.1,4.3,14.3,7.3s7.6,6.8,10.3,11.4c2.6,4.6,3.9,10.4,3.9,17.2c0,8.9-1.7,16.8-5.1,23.8
		c-3.4,7-8.2,12.9-14.4,17.8c-6.2,4.9-13.8,8.6-22.6,11.2c-8.9,2.6-18.8,3.8-29.7,3.8c-5.7,0-11.2-0.4-16.4-1.1s-10.1-1.6-14.4-2.7
		c-4.4-1.1-8.2-2.3-11.5-3.7c-3.3-1.3-6-2.6-7.9-3.8l5.1-24.7c6.2,3,13.1,5.6,20.9,7.6c7.7,2.1,15.9,3.1,24.5,3.1
		c6.2,0,11.8-0.7,16.8-2s9.3-3.2,12.8-5.6c3.5-2.4,6.3-5.4,8.2-9C894.3,215.9,895.3,211.8,895.3,207.3z"/>
	<linearGradient id="SVGID_11_" gradientUnits="userSpaceOnUse" x1="948" y1="169.85" x2="1069.2" y2="169.85">
		<stop  offset="0" style="stop-color:#2294FE"/>
		<stop  offset="1" style="stop-color:#014F96"/>
	</linearGradient>
	<linearGradient id="SVGID_12_" gradientUnits="userSpaceOnUse" x1="942.4724" y1="169.85" x2="1073.7" y2="169.85">
		<stop  offset="0" style="stop-color:#2294FE"/>
		<stop  offset="1" style="stop-color:#014F96"/>
	</linearGradient>
	<path class="st8" d="M1038,186.3c0.5-2.5,0.9-4.8,1.2-6.8c0.3-2,0.4-3.7,0.4-5.1c0-4.1-1.1-7.4-3.4-9.6c-2.3-2.3-5.9-3.4-10.7-3.4
		c-5.9,0-11.5,1.6-16.6,4.9c-5.1,3.3-9.4,7.6-12.8,13.2c-0.7,1.1-1.3,2.2-1.9,3.4c-0.6,1.2-1.2,2.6-1.8,4.1s-1.1,3.3-1.6,5.3
		s-1.1,4.3-1.6,7L977,258.2h-29l36.6-176.7h28.8l-11.5,55.3c-0.9,4.6-2.5,10.7-4.9,18.1h0.5c2-2.4,4.3-4.6,6.9-6.8
		c2.6-2.2,5.6-4,8.7-5.7c3.2-1.6,6.6-2.9,10.3-3.9s7.6-1.5,11.7-1.5c4.6,0,9,0.7,13.1,2s7.7,3.3,10.9,5.9c3.1,2.6,5.6,5.8,7.4,9.5
		s2.7,8.1,2.7,12.9c0,3-0.3,6.3-0.9,10s-1.2,7.3-2,11l-14.5,69.8H1023L1038,186.3z"/>
	<linearGradient id="SVGID_13_" gradientUnits="userSpaceOnUse" x1="1087.1001" y1="199.25" x2="1202.7999" y2="199.25">
		<stop  offset="0" style="stop-color:#2294FE"/>
		<stop  offset="1" style="stop-color:#014F96"/>
	</linearGradient>
	<linearGradient id="SVGID_14_" gradientUnits="userSpaceOnUse" x1="1082.6001" y1="199.25" x2="1208.3297" y2="199.25">
		<stop  offset="0" style="stop-color:#2294FE"/>
		<stop  offset="1" style="stop-color:#014F96"/>
	</linearGradient>
	<path class="st9" d="M1184.5,229.8c0,2.2,0.6,3.8,1.8,4.7c1.2,0.9,2.8,1.4,4.9,1.4c2.4,0,5.2-0.2,8.7-0.7l-5,23.2
		c-5,1.1-9.9,1.6-14.5,1.6c-6.7,0-11.7-1.6-15.2-4.7s-5.6-7.6-6.5-13.4h-0.5c-5.6,6.9-11.7,11.9-18.1,14.9c-6.5,3-12.8,4.5-19,4.5
		c-5.3,0-10.1-1-14.3-2.9c-4.2-2-7.8-4.7-10.7-8.3c-2.9-3.6-5.2-7.9-6.7-12.9s-2.3-10.7-2.3-16.8c0-6.6,0.5-13.2,1.6-19.9
		s2.7-13.1,4.9-19.2c2.2-6.1,4.9-11.9,8.1-17.3c3.2-5.4,6.9-10,11.2-14c4.2-4,9-7.1,14.2-9.4c5.2-2.3,10.9-3.4,17-3.4
		c5.6,0,10.9,1.2,16,3.5c5,2.4,9.4,6.1,13.2,11.1h0.5l4.3-11.7h24.7l-17.1,82.4c-0.3,1.5-0.6,3-0.7,4.3
		C1184.6,228.1,1184.5,229.1,1184.5,229.8z M1167.6,169.9c-0.7-1.1-1.7-2.1-2.9-3.2c-1.2-1.1-2.6-2.1-4.2-2.9
		c-1.6-0.9-3.3-1.6-5.3-2.1c-1.9-0.6-4-0.9-6.2-0.9c-3.8,0-7.3,0.9-10.4,2.7s-5.9,4.3-8.4,7.3c-2.5,3.1-4.6,6.5-6.4,10.5
		c-1.8,3.9-3.3,8-4.5,12.3c-1.2,4.2-2.1,8.4-2.6,12.5c-0.6,4.1-0.9,7.9-0.9,11.4c0,6.9,1.1,12,3.2,15.3c2.2,3.3,5.3,4.9,9.5,4.9
		s8.3-1.4,12.5-4.2s7.9-6.7,11.1-11.5c2.2-3.3,4.1-7,5.7-11.1s2.9-8.9,4.1-14.3L1167.6,169.9z"/>
	<linearGradient id="SVGID_15_" gradientUnits="userSpaceOnUse" x1="1217.2999" y1="197.75" x2="1311.7" y2="197.75">
		<stop  offset="0" style="stop-color:#2294FE"/>
		<stop  offset="1" style="stop-color:#014F96"/>
	</linearGradient>
	<linearGradient id="SVGID_16_" gradientUnits="userSpaceOnUse" x1="1211.7715" y1="197.75" x2="1317.0743" y2="197.75">
		<stop  offset="0" style="stop-color:#2294FE"/>
		<stop  offset="1" style="stop-color:#014F96"/>
	</linearGradient>
	<path class="st10" d="M1306.1,164.8c-3.5-0.8-6.9-1.2-10.1-1.2c-2.9,0-5.9,0.3-8.9,1s-5.9,1.7-8.8,3.2c-2.8,1.5-5.5,3.4-8.1,5.8
		c-2.5,2.4-4.7,5.4-6.6,9c-0.9,1.7-1.8,3.8-2.6,6.2c-0.9,2.4-1.7,5.8-2.6,10.1l-12.3,59.4h-28.8l24.5-118.2h24.5V155h0.5
		c4.6-5.6,9.8-10,15.5-13.1s12.4-4.7,20-4.7c3,0,6.1,0.2,9.4,0.7L1306.1,164.8z"/>
	<linearGradient id="SVGID_17_" gradientUnits="userSpaceOnUse" x1="1311" y1="199.25" x2="1418.6" y2="199.25">
		<stop  offset="0" style="stop-color:#2294FE"/>
		<stop  offset="1" style="stop-color:#014F96"/>
	</linearGradient>
	<linearGradient id="SVGID_18_" gradientUnits="userSpaceOnUse" x1="1306.5" y1="199.25" x2="1423.1" y2="199.25">
		<stop  offset="0" style="stop-color:#2294FE"/>
		<stop  offset="1" style="stop-color:#014F96"/>
	</linearGradient>
	<path class="st11" d="M1418.6,169.4c0,6.6-1.6,12.5-4.8,17.8c-3.2,5.2-8,9.7-14.2,13.4c-6.3,3.7-14,6.5-23.2,8.5
		s-19.8,2.9-31.7,2.9c-1.4,0-3.1,0-5.3-0.1v0.7c0,4.3,0.6,8.1,1.9,11.3s3.1,5.8,5.5,7.9c2.4,2,5.3,3.5,8.7,4.5
		c3.4,0.9,7.2,1.4,11.5,1.4c6.3,0,13-0.8,20-2.3s13.1-3.6,18.3-6.2l-5.3,25.4c-5,2-10.8,3.7-17.3,4.9c-6.5,1.3-13.4,1.9-20.7,1.9
		c-8.7,0-16.3-1.2-22.7-3.5c-6.4-2.4-11.7-5.7-15.9-9.9c-4.2-4.3-7.3-9.3-9.3-15.2s-3.1-12.3-3.1-19.4c0-6.3,0.7-12.5,2-18.7
		s3.2-12.1,5.7-17.8s5.7-10.9,9.4-15.7c3.7-4.8,8.1-9,13-12.6c4.9-3.5,10.4-6.3,16.5-8.4c6.1-2,12.7-3.1,19.9-3.1
		c6.3,0,11.9,0.8,17,2.3c5,1.5,9.3,3.7,12.9,6.5c3.5,2.8,6.3,6.2,8.2,10.2C1417.6,160.1,1418.6,164.5,1418.6,169.4z M1389.5,169.4
		c0-2.7-1.1-5-3.2-7s-5.3-2.9-9.6-2.9c-3.3,0-6.6,0.7-9.9,2c-3.4,1.3-6.6,3.2-9.5,5.8c-3,2.6-5.6,5.7-8,9.4s-4.2,8-5.6,12.8
		c8.6,0,15.9-0.6,21.7-1.7c5.9-1.1,10.6-2.6,14.2-4.5s6.1-4,7.7-6.4C1388.8,174.4,1389.5,171.9,1389.5,169.4z"/>
</g>
</svg>
